<svg width="134" height="53" viewBox="0 0 134 53" fill="none" xmlns="http://www.w3.org/2000/svg">
<path d="M6.392 30.6C6.36933 30.6907 6.358 30.8153 6.358 30.974C6.358 31.5407 6.562 31.824 6.97 31.824C7.174 31.824 7.38933 31.7673 7.616 31.654C7.86533 31.5407 8.194 31.3027 8.602 30.94L9.044 31.994C8.68133 32.5153 8.14867 33.0367 7.446 33.558C6.74333 34.0793 5.83667 34.34 4.726 34.34C3.86467 34.34 3.162 34.17 2.618 33.83C2.074 33.4673 1.79067 32.912 1.768 32.164C1.768 32.0733 1.81333 31.6653 1.904 30.94L4.862 9.214L2.72 8.534L3.026 7.276L8.806 6.596L9.588 7.038L6.392 30.6ZM15.9354 12.002C15.1194 12.002 14.4734 11.764 13.9974 11.288C13.5214 10.812 13.2834 10.2 13.2834 9.452C13.2834 8.59066 13.5554 7.87667 14.0994 7.31C14.6434 6.74333 15.3687 6.46 16.2754 6.46C17.182 6.46 17.8734 6.70933 18.3494 7.208C18.8254 7.684 19.0634 8.28467 19.0634 9.01C19.0634 9.91667 18.7914 10.642 18.2474 11.186C17.7034 11.73 16.944 12.002 15.9694 12.002H15.9354ZM14.1334 18.326L11.7194 17.68V15.402L17.9414 14.654H18.0094L18.9614 15.334V31.688L21.2394 31.96V34H11.7534V31.96L14.1334 31.654V18.326ZM25.5805 18.326L23.4045 17.714V15.368L29.0485 14.654H29.1505L30.0005 15.334V16.66L29.9665 17.476C30.7598 16.728 31.7912 16.082 33.0605 15.538C34.3298 14.994 35.6105 14.722 36.9025 14.722C38.2852 14.722 39.3618 14.9827 40.1325 15.504C40.9258 16.0027 41.4925 16.796 41.8325 17.884C42.1725 18.972 42.3425 20.4453 42.3425 22.304V31.688L44.4165 31.96V34H35.6445V31.96L37.4805 31.688V22.304C37.4805 21.1253 37.4012 20.2073 37.2425 19.55C37.0838 18.87 36.7892 18.3827 36.3585 18.088C35.9505 17.7707 35.3612 17.612 34.5905 17.612C33.2985 17.612 31.9158 18.1673 30.4425 19.278V31.654L32.4825 31.96V34H23.6085V31.96L25.5805 31.654V18.326ZM52.5311 34.306C51.1031 34.306 50.0491 33.9773 49.3691 33.32C48.6891 32.6627 48.3491 31.62 48.3491 30.192V17.714H46.1391V15.946C46.3204 15.878 46.6491 15.7647 47.1251 15.606C47.6011 15.4247 47.9637 15.2773 48.2131 15.164C48.5984 14.8693 48.9271 14.3593 49.1991 13.634C49.4031 13.158 49.7771 11.9793 50.3211 10.098H53.0411L53.1771 15.096H58.3791V17.714H53.2111V27.268C53.2111 28.5373 53.2451 29.4327 53.3131 29.954C53.3811 30.4753 53.5284 30.8153 53.7551 30.974C53.9817 31.11 54.3784 31.178 54.9451 31.178C55.5117 31.178 56.1011 31.1213 56.7131 31.008C57.3251 30.872 57.8351 30.7133 58.2431 30.532L58.8891 32.436C58.2544 32.912 57.3251 33.3427 56.1011 33.728C54.8771 34.1133 53.6871 34.306 52.5311 34.306ZM69.266 34.374C66.274 34.374 64.0413 33.5013 62.568 31.756C61.1173 29.988 60.392 27.5853 60.392 24.548C60.392 22.508 60.766 20.74 61.514 19.244C62.2846 17.748 63.3613 16.6033 64.744 15.81C66.1266 15.0167 67.7246 14.62 69.538 14.62C71.8046 14.62 73.55 15.2207 74.774 16.422C75.998 17.6007 76.6326 19.2893 76.678 21.488C76.678 22.984 76.5873 24.0947 76.406 24.82H65.356C65.4466 26.8827 65.934 28.492 66.818 29.648C67.702 30.7813 68.96 31.348 70.592 31.348C71.476 31.348 72.3826 31.2007 73.312 30.906C74.264 30.6113 75.012 30.26 75.556 29.852L76.406 31.722C75.794 32.3793 74.7966 32.9913 73.414 33.558C72.054 34.102 70.6713 34.374 69.266 34.374ZM71.918 22.78C71.9633 22.1453 71.986 21.658 71.986 21.318C71.986 18.3033 70.9773 16.796 68.96 16.796C67.8493 16.796 66.988 17.238 66.376 18.122C65.764 19.006 65.424 20.5587 65.356 22.78H71.918ZM81.2953 18.326L79.1193 17.714V15.368L84.7633 14.654H84.8653L85.7153 15.334V16.66L85.6813 17.476C86.4747 16.728 87.506 16.082 88.7753 15.538C90.0447 14.994 91.3253 14.722 92.6173 14.722C94 14.722 95.0767 14.9827 95.8473 15.504C96.6407 16.0027 97.2073 16.796 97.5473 17.884C97.8873 18.972 98.0573 20.4453 98.0573 22.304V31.688L100.131 31.96V34H91.3593V31.96L93.1953 31.688V22.304C93.1953 21.1253 93.116 20.2073 92.9573 19.55C92.7987 18.87 92.504 18.3827 92.0733 18.088C91.6653 17.7707 91.076 17.612 90.3053 17.612C89.0133 17.612 87.6307 18.1673 86.1573 19.278V31.654L88.1973 31.96V34H79.3233V31.96L81.2953 31.654V18.326Z" fill="#1A1C20"/>
<path d="M113.924 18.36C113.652 18.0427 113.199 17.714 112.564 17.374C111.952 17.034 111.238 16.864 110.422 16.864C109.515 16.864 108.779 17.068 108.212 17.476C107.668 17.8613 107.396 18.4393 107.396 19.21C107.396 19.89 107.623 20.502 108.076 21.046C108.552 21.5673 109.311 22.202 110.354 22.95C111.51 23.8113 112.394 24.65 113.006 25.466C113.618 26.2593 113.924 27.2793 113.924 28.526C113.924 29.7727 113.584 30.838 112.904 31.722C112.224 32.5833 111.317 33.2407 110.184 33.694C109.051 34.1247 107.804 34.34 106.444 34.34C105.424 34.34 104.381 34.2267 103.316 34C102.251 33.7507 101.559 33.49 101.242 33.218L101.922 30.328C102.398 30.736 103.044 31.1213 103.86 31.484C104.676 31.8467 105.526 32.028 106.41 32.028C107.249 32.028 107.963 31.8353 108.552 31.45C109.164 31.0647 109.47 30.464 109.47 29.648C109.47 28.9453 109.209 28.3107 108.688 27.744C108.167 27.1773 107.385 26.5313 106.342 25.806C105.39 25.1487 104.585 24.378 103.928 23.494C103.293 22.5873 102.976 21.4993 102.976 20.23C102.976 19.142 103.282 18.1787 103.894 17.34C104.529 16.5013 105.39 15.8553 106.478 15.402C107.589 14.926 108.858 14.688 110.286 14.688C111.125 14.688 111.975 14.756 112.836 14.892C113.697 15.028 114.275 15.1753 114.57 15.334L113.924 18.36ZM131.222 30.6C130.632 31.5293 129.669 32.402 128.332 33.218C127.017 34.034 125.487 34.442 123.742 34.442C122.11 34.442 120.761 34.0907 119.696 33.388C118.653 32.6853 117.894 31.7673 117.418 30.634C116.942 29.5007 116.704 28.2653 116.704 26.928C116.704 24.6613 117.157 22.5987 118.064 20.74C118.993 18.8587 120.251 17.374 121.838 16.286C123.424 15.198 125.192 14.654 127.142 14.654C128.887 14.654 130.179 15.062 131.018 15.878C131.879 16.6713 132.31 17.714 132.31 19.006C132.31 20.638 131.72 21.998 130.542 23.086C129.363 24.174 127.946 24.99 126.292 25.534C124.637 26.0553 123.073 26.3387 121.6 26.384C121.554 28.016 121.815 29.3307 122.382 30.328C122.971 31.3253 123.855 31.824 125.034 31.824C126.983 31.824 128.751 30.9173 130.338 29.104L131.222 30.6ZM126.122 16.762C124.784 16.762 123.73 17.5667 122.96 19.176C122.189 20.7853 121.736 22.576 121.6 24.548C122.484 24.5027 123.413 24.2647 124.388 23.834C125.385 23.4033 126.212 22.8027 126.87 22.032C127.55 21.2387 127.89 20.332 127.89 19.312C127.89 18.496 127.731 17.8727 127.414 17.442C127.119 16.9887 126.688 16.762 126.122 16.762Z" fill="#FF4D00"/>
<path d="M2.94434 40.1797V48H1.90771V40.1797H2.94434ZM6.2207 43.6978V44.5464H2.71875V43.6978H6.2207ZM6.75244 40.1797V41.0283H2.71875V40.1797H6.75244ZM9.64961 40.1797V48H8.61299V40.1797H9.64961ZM14.8134 40.1797V48H13.7929V40.1797H14.8134ZM17.3271 40.1797V41.0283H11.2846V40.1797H17.3271ZM25.0528 40.1797V48H24.0108L20.0738 41.9683V48H19.0372V40.1797H20.0738L24.027 46.2275V40.1797H25.0528ZM32.408 47.1567V48H28.2669V47.1567H32.408ZM28.4764 40.1797V48H27.4397V40.1797H28.4764ZM31.8602 43.542V44.3853H28.2669V43.542H31.8602ZM32.3543 40.1797V41.0283H28.2669V40.1797H32.3543ZM38.4097 46.0234C38.4097 45.8408 38.381 45.6797 38.3237 45.54C38.27 45.3968 38.1733 45.2679 38.0337 45.1533C37.8976 45.0387 37.7078 44.9295 37.4644 44.8257C37.2244 44.7218 36.9201 44.6162 36.5513 44.5088C36.1646 44.3942 35.8154 44.2671 35.5039 44.1274C35.1924 43.9842 34.9256 43.8213 34.7036 43.6387C34.4816 43.4561 34.3115 43.2466 34.1934 43.0103C34.0752 42.7739 34.0161 42.5036 34.0161 42.1992C34.0161 41.8949 34.0788 41.6138 34.2041 41.356C34.3294 41.0981 34.5085 40.8743 34.7412 40.6846C34.9775 40.4912 35.2586 40.3408 35.5845 40.2334C35.9103 40.126 36.2738 40.0723 36.6748 40.0723C37.262 40.0723 37.7598 40.1851 38.168 40.4106C38.5798 40.6326 38.8931 40.9245 39.1079 41.2861C39.3228 41.6442 39.4302 42.0273 39.4302 42.4355H38.3989C38.3989 42.1419 38.3363 41.8823 38.2109 41.6567C38.0856 41.4276 37.8958 41.2485 37.6416 41.1196C37.3874 40.9871 37.0651 40.9209 36.6748 40.9209C36.306 40.9209 36.0016 40.9764 35.7617 41.0874C35.5218 41.1984 35.3428 41.3488 35.2246 41.5386C35.11 41.7284 35.0527 41.945 35.0527 42.1885C35.0527 42.3532 35.0868 42.5036 35.1548 42.6396C35.2264 42.7721 35.3356 42.8957 35.4824 43.0103C35.6328 43.1248 35.8226 43.2305 36.0518 43.3271C36.2845 43.4238 36.562 43.5169 36.8843 43.6064C37.3283 43.7318 37.7114 43.8714 38.0337 44.0254C38.356 44.1794 38.6209 44.353 38.8286 44.5464C39.0399 44.7362 39.1956 44.9528 39.2959 45.1963C39.3997 45.4362 39.4517 45.7083 39.4517 46.0127C39.4517 46.3314 39.3872 46.6196 39.2583 46.8774C39.1294 47.1353 38.945 47.3555 38.7051 47.5381C38.4652 47.7207 38.1769 47.8621 37.8403 47.9624C37.5073 48.0591 37.1349 48.1074 36.7231 48.1074C36.3615 48.1074 36.0052 48.0573 35.6543 47.957C35.307 47.8568 34.9901 47.7064 34.7036 47.5059C34.4207 47.3053 34.1934 47.0583 34.0215 46.7646C33.8532 46.4674 33.769 46.1237 33.769 45.7334H34.8003C34.8003 46.002 34.8522 46.2329 34.9561 46.4263C35.0599 46.616 35.2013 46.7736 35.3804 46.8989C35.563 47.0243 35.7689 47.1174 35.998 47.1782C36.2308 47.2355 36.4725 47.2642 36.7231 47.2642C37.0848 47.2642 37.391 47.214 37.6416 47.1138C37.8923 47.0135 38.082 46.8703 38.2109 46.6841C38.3434 46.4979 38.4097 46.2777 38.4097 46.0234ZM45.4909 46.0234C45.4909 45.8408 45.4623 45.6797 45.405 45.54C45.3513 45.3968 45.2546 45.2679 45.1149 45.1533C44.9789 45.0387 44.7891 44.9295 44.5456 44.8257C44.3057 44.7218 44.0013 44.6162 43.6325 44.5088C43.2458 44.3942 42.8967 44.2671 42.5852 44.1274C42.2736 43.9842 42.0069 43.8213 41.7849 43.6387C41.5629 43.4561 41.3928 43.2466 41.2746 43.0103C41.1564 42.7739 41.0974 42.5036 41.0974 42.1992C41.0974 41.8949 41.16 41.6138 41.2854 41.356C41.4107 41.0981 41.5897 40.8743 41.8225 40.6846C42.0588 40.4912 42.3399 40.3408 42.6657 40.2334C42.9916 40.126 43.355 40.0723 43.7561 40.0723C44.3433 40.0723 44.841 40.1851 45.2492 40.4106C45.661 40.6326 45.9743 40.9245 46.1892 41.2861C46.404 41.6442 46.5114 42.0273 46.5114 42.4355H45.4802C45.4802 42.1419 45.4175 41.8823 45.2922 41.6567C45.1669 41.4276 44.9771 41.2485 44.7229 41.1196C44.4686 40.9871 44.1464 40.9209 43.7561 40.9209C43.3872 40.9209 43.0829 40.9764 42.843 41.0874C42.6031 41.1984 42.424 41.3488 42.3059 41.5386C42.1913 41.7284 42.134 41.945 42.134 42.1885C42.134 42.3532 42.168 42.5036 42.236 42.6396C42.3076 42.7721 42.4169 42.8957 42.5637 43.0103C42.7141 43.1248 42.9038 43.2305 43.133 43.3271C43.3658 43.4238 43.6433 43.5169 43.9655 43.6064C44.4095 43.7318 44.7927 43.8714 45.1149 44.0254C45.4372 44.1794 45.7022 44.353 45.9099 44.5464C46.1211 44.7362 46.2769 44.9528 46.3771 45.1963C46.481 45.4362 46.5329 45.7083 46.5329 46.0127C46.5329 46.3314 46.4685 46.6196 46.3396 46.8774C46.2106 47.1353 46.0262 47.3555 45.7863 47.5381C45.5464 47.7207 45.2582 47.8621 44.9216 47.9624C44.5886 48.0591 44.2162 48.1074 43.8044 48.1074C43.4427 48.1074 43.0865 48.0573 42.7355 47.957C42.3882 47.8568 42.0713 47.7064 41.7849 47.5059C41.502 47.3053 41.2746 47.0583 41.1027 46.7646C40.9344 46.4674 40.8503 46.1237 40.8503 45.7334H41.8815C41.8815 46.002 41.9335 46.2329 42.0373 46.4263C42.1411 46.616 42.2826 46.7736 42.4616 46.8989C42.6442 47.0243 42.8501 47.1174 43.0793 47.1782C43.312 47.2355 43.5537 47.2642 43.8044 47.2642C44.166 47.2642 44.4722 47.214 44.7229 47.1138C44.9735 47.0135 45.1633 46.8703 45.2922 46.6841C45.4247 46.4979 45.4909 46.2777 45.4909 46.0234Z" fill="#1A1C20"/>
</svg>
